HIERARCHY
ROOT Hips
{
	OFFSET 0.000000 0.000000 0.000000
	CHANNELS 6 Xposition Yposition Zposition Xrotation Yrotation Zrotation
	JOINT LeftUpLeg_virtual
	{
		OFFSET 0.000000 0.000000 0.000000
		CHANNELS 3 Xrotation Yrotation Zrotation
		JOINT LeftUpLeg
		{
			OFFSET 13.026900 -6.336304 -1.092800
			CHANNELS 3 Xrotation Yrotation Zrotation
			JOINT LeftLeg
			{
				OFFSET 0.524474 -46.096886 9.782700
				CHANNELS 3 Xrotation Yrotation Zrotation
				JOINT LeftFoot
				{
					OFFSET -0.524474 -53.427422 -12.948200
					CHANNELS 3 Xrotation Yrotation Zrotation
					JOINT LeftToeBase
					{
						OFFSET 0.192200 -14.009700 16.364100
						CHANNELS 3 Xrotation Yrotation Zrotation
						JOINT LeftToe_End
						{
							OFFSET -1.784700 -0.561700 9.474800
							CHANNELS 3 Xrotation Yrotation Zrotation
							End Site
							{
								OFFSET 0 0 0
							}
						}
					}
				}
			}
		}
	}
	JOINT RightUpLeg_virtual
	{
		OFFSET 0.000000 0.000000 0.000000
		CHANNELS 3 Xrotation Yrotation Zrotation
		JOINT RightUpLeg
		{
			OFFSET -12.883000 -6.336304 -1.092800
			CHANNELS 3 Xrotation Yrotation Zrotation
			JOINT RightLeg
			{
				OFFSET -0.524587 -46.096825 9.782800
				CHANNELS 3 Xrotation Yrotation Zrotation
				JOINT RightFoot
				{
					OFFSET 0.524587 -53.427383 -12.948300
					CHANNELS 3 Xrotation Yrotation Zrotation
					JOINT RightToeBase
					{
						OFFSET -0.192200 -14.009700 16.364100
						CHANNELS 3 Xrotation Yrotation Zrotation
						JOINT RightToe_End
						{
							OFFSET 1.784700 -0.561700 9.474800
							CHANNELS 3 Xrotation Yrotation Zrotation
							End Site
							{
								OFFSET 0 0 0
							}
						}
					}
				}
			}
		}
	}
	JOINT Spine_virtual
	{
		OFFSET 0.000000 0.000000 0.000000
		CHANNELS 3 Xrotation Yrotation Zrotation
		JOINT Spine
		{
			OFFSET 0.072000 7.257294 -0.789700
			CHANNELS 3 Xrotation Yrotation Zrotation
			JOINT Spine1
			{
				OFFSET 0.000000 12.508769 -0.658067
				CHANNELS 3 Xrotation Yrotation Zrotation
				JOINT Spine1_split
				{
					OFFSET 0.000000 12.508769 -0.658067
					CHANNELS 3 Xrotation Yrotation Zrotation
					JOINT Spine2
					{
						OFFSET 0.000000 12.508769 -0.658067
						CHANNELS 3 Xrotation Yrotation Zrotation
						JOINT Neck_virtual
						{
							OFFSET 0.000000 0.000000 0.000000
							CHANNELS 3 Xrotation Yrotation Zrotation
							JOINT Neck
							{
								OFFSET 0.000000 14.033295 7.520400
								CHANNELS 3 Xrotation Yrotation Zrotation
								JOINT Head
								{
									OFFSET 0.000000 8.198502 5.703100
									CHANNELS 3 Xrotation Yrotation Zrotation
									JOINT HeadTop_End
									{
										OFFSET 0.000000 17.760803 13.332701
										CHANNELS 3 Xrotation Yrotation Zrotation
										End Site
										{
											OFFSET 0 0 0
										}
									}
								}
							}
						}
						JOINT LeftShoulder_virtual
						{
							OFFSET 0.000000 0.000000 0.000000
							CHANNELS 3 Xrotation Yrotation Zrotation
							JOINT LeftShoulder
							{
								OFFSET 6.292450 5.785301 -0.669000
								CHANNELS 3 Xrotation Yrotation Zrotation
								JOINT LeftShoulder_split
								{
									OFFSET 6.292450 5.785301 -0.669000
									CHANNELS 3 Xrotation Yrotation Zrotation
									JOINT LeftArm
									{
										OFFSET 13.907140 -6.093903 1.965100
										CHANNELS 3 Xrotation Yrotation Zrotation
										JOINT LeftForeArm
										{
											OFFSET 34.140198 0.000000 0.000000
											CHANNELS 3 Xrotation Yrotation Zrotation
											JOINT LeftHand
											{
												OFFSET 40.960209 0.000000 0.000000
												CHANNELS 3 Xrotation Yrotation Zrotation
												End Site
												{
													OFFSET 0 0 0
												}
											}
										}
									}
								}
							}
						}
						JOINT RightShoulder_virtual
						{
							OFFSET 0.000000 0.000000 0.000000
							CHANNELS 3 Xrotation Yrotation Zrotation
							JOINT RightShoulder
							{
								OFFSET -6.292450 5.785301 -0.669000
								CHANNELS 3 Xrotation Yrotation Zrotation
								JOINT RightShoulder_split
								{
									OFFSET -6.292450 5.785301 -0.669000
									CHANNELS 3 Xrotation Yrotation Zrotation
									JOINT RightArm
									{
										OFFSET -13.907140 -6.093903 1.965100
										CHANNELS 3 Xrotation Yrotation Zrotation
										JOINT RightForeArm
										{
											OFFSET -34.140198 0.000000 0.000000
											CHANNELS 3 Xrotation Yrotation Zrotation
											JOINT RightHand
											{
												OFFSET -40.960209 0.000000 0.000000
												CHANNELS 3 Xrotation Yrotation Zrotation
												End Site
												{
													OFFSET 0 0 0
												}
											}
										}
									}
								}
							}
						}
					}
				}
			}
		}
	}
}
MOTION
Frames: 4
Frame Time: 0.03333333
-0.637441 101.437904 -1.096527 0.000000 0.000000 0.000000 5.483603 3.391709 -5.949724 -47.009375 2.073133 1.316284 96.268552 12.271243 3.451825 -3.701980 -0.879032 6.604364 -0.898553 -2.887885 -6.627548 0.000000 0.000000 0.000000 5.483603 3.391709 -5.949724 -23.989240 -7.957317 7.346201 51.874050 -0.921018 -1.883252 -23.400442 0.955570 -1.991860 -10.708775 12.986961 -1.057757 0.000000 0.000000 0.000000 5.483603 3.391709 -5.949724 4.863817 1.113766 4.349505 9.857117 2.800250 1.722123 0.000000 0.000000 0.000000 0.000000 0.000000 0.000000 9.857124 2.800250 1.722122 -7.496574 -3.144981 -0.434788 -14.101448 -7.360286 -5.253898 0.000000 0.000000 0.000000 9.857124 2.800250 1.722122 1.084062 -1.226536 -9.108714 0.000000 0.000000 0.000000 21.951219 16.129905 -69.744598 -174.798119 -76.010170 173.876576 0.000000 0.000000 0.000000 9.857124 2.800250 1.722122 0.776472 6.054089 9.529804 0.000000 0.000000 0.000000 5.506717 -10.523613 55.529277 -70.895704 86.710618 75.612865 0.000000 0.000000 0.000000 
2.214859 104.264275 26.733475 0.000000 0.000000 0.000000 0.133416 -1.926367 1.306219 -60.398468 -0.965373 -0.013378 85.177445 13.129834 3.595284 10.466645 -0.256778 8.510483 -4.875798 -3.545096 -3.061962 0.000000 0.000000 0.000000 0.133416 -1.926367 1.306219 -5.346859 -5.007895 -1.485426 50.524921 2.822966 -3.859297 -2.629573 0.849386 1.349214 -43.388483 9.799563 7.166949 0.000000 0.000000 0.000000 0.133416 -1.926367 1.306219 4.653185 2.143124 2.059681 9.488551 3.163841 -0.986325 0.000000 0.000000 0.000000 0.000000 0.000000 0.000000 9.488543 3.163836 -0.986325 2.602474 -3.411513 -2.577497 -12.199127 -8.439066 -5.062702 0.000000 0.000000 0.000000 9.488543 3.163836 -0.986325 0.950479 -5.646697 -7.066025 0.000000 0.000000 0.000000 19.644662 26.553692 -68.303388 135.056664 -88.006687 123.490490 0.000000 0.000000 0.000000 9.488543 3.163836 -0.986325 0.215435 7.052323 4.417730 0.000000 0.000000 0.000000 -0.696323 -7.601967 49.506615 -136.724172 80.118433 141.096668 0.000000 0.000000 0.000000 
3.051155 103.369331 51.270306 0.000000 0.000000 0.000000 -6.315031 -9.020399 7.677724 -61.737677 -3.831378 -1.247200 68.713957 19.523537 5.017874 11.883454 -0.092721 7.212128 -4.770377 -8.955205 4.908102 0.000000 0.000000 0.000000 -6.315031 -9.020399 7.677724 1.987173 3.549880 -11.972554 56.788710 6.015869 -3.713357 39.587172 -0.406878 -3.776725 -65.145675 -3.034025 13.408779 0.000000 0.000000 0.000000 -6.315031 -9.020399 7.677724 5.215222 3.045558 -1.375272 10.507891 3.279740 -3.461315 0.000000 0.000000 0.000000 0.000000 0.000000 0.000000 10.507898 3.279740 -3.461316 11.415390 -3.410769 -4.364174 -10.844145 -7.168178 -5.071503 0.000000 0.000000 0.000000 10.507898 3.279740 -3.461316 0.774289 -9.387641 -6.438878 0.000000 0.000000 0.000000 20.205189 35.514617 -63.760082 44.363533 -72.657387 27.758589 0.000000 0.000000 0.000000 10.507898 3.279740 -3.461316 -0.199668 7.579317 -1.593902 0.000000 0.000000 0.000000 -6.612555 -8.410417 44.562012 -147.787836 71.668396 149.583492 0.000000 0.000000 0.000000 
3.212099 99.093964 75.669693 0.000000 0.000000 0.000000 -10.301173 -18.131301 11.484581 -54.989686 -5.730289 0.681403 49.191692 25.560467 6.669871 8.833150 0.034611 8.947807 -5.391866 -11.789749 10.073200 0.000000 0.000000 0.000000 -10.301173 -18.131301 11.484581 7.469463 7.685802 -13.083737 59.706556 11.782181 2.008605 57.736217 2.530187 2.747635 -15.048449 -7.727314 17.301154 0.000000 0.000000 0.000000 -10.301173 -18.131301 11.484581 5.796005 3.601250 -3.776057 11.598091 3.450193 -5.915487 0.000000 0.000000 0.000000 0.000000 0.000000 0.000000 11.598096 3.450192 -5.915494 16.890327 -2.645588 -6.011880 -10.493308 -3.242923 -5.853357 0.000000 0.000000 0.000000 11.598096 3.450192 -5.915494 0.522783 -10.917883 -5.526656 0.000000 0.000000 0.000000 24.556552 41.465590 -61.039297 37.414441 -54.868603 14.591041 0.000000 0.000000 0.000000 11.598096 3.450192 -5.915494 -0.402395 7.421404 -7.423813 0.000000 0.000000 0.000000 -7.388205 -13.516210 42.105388 -151.539085 58.470941 151.678489 0.000000 0.000000 0.000000 
